<svg width="24" height="24" viewBox="0 0 24 24" fill="none" xmlns="http://www.w3.org/2000/svg">
  <path d="M12 7H7.5C6.83696 7 6.20107 7.26339 5.73223 7.73223C5.26339 8.20107 5 8.83696 5 9.5C5 10.163 5.26339 10.7989 5.73223 11.2678C6.20107 11.7366 6.83696 12 7.5 12H16.5C17.163 12 17.7989 12.2634 18.2678 12.7322C18.7366 13.2011 19 13.837 19 14.5C19 15.163 18.7366 15.7989 18.2678 16.2678C17.7989 16.7366 17.163 17 16.5 17H12M12 7V5M12 7V9M12 17V15M12 17V19M21 12C21 16.9706 16.9706 21 12 21C7.02944 21 3 16.9706 3 12C3 7.02944 7.02944 3 12 3C16.9706 3 21 7.02944 21 12Z" stroke="currentColor" stroke-width="2" stroke-linecap="round" stroke-linejoin="round"/>
</svg> 