<svg width="24" height="24" viewBox="0 0 24 24" fill="none" xmlns="http://www.w3.org/2000/svg">
  <path d="M9.3951 19.3711L9.97955 21.1138C10.1533 21.6247 10.5014 22.0593 10.9555 22.3516C11.4095 22.6439 11.9466 22.7772 12.4859 22.7296C13.0252 22.682 13.5337 22.4558 13.9342 22.0893C14.3347 21.7227 14.6049 21.2353 14.7047 20.7044L14.9223 19.3711M14.9223 4.62889L14.7047 3.29556C14.6049 2.76474 14.3347 2.27733 13.9342 1.91073C13.5337 1.54413 13.0252 1.31799 12.4859 1.27039C11.9466 1.22279 11.4095 1.35612 10.9555 1.64842C10.5014 1.94072 10.1533 2.37525 9.97955 2.88623L9.3951 4.62889M4.62889 9.3951L2.88623 9.97955C2.37525 10.1533 1.94072 10.5014 1.64842 10.9555C1.35612 11.4095 1.22279 11.9466 1.27039 12.4859C1.31799 13.0252 1.54413 13.5337 1.91073 13.9342C2.27733 14.3347 2.76474 14.6049 3.29556 14.7047L4.62889 14.9223M19.3711 14.9223L20.7044 14.7047C21.2353 14.6049 21.7227 14.3347 22.0893 13.9342C22.4558 13.5337 22.682 13.0252 22.7296 12.4859C22.7772 11.9466 22.6439 11.4095 22.3516 10.9555C22.0593 10.5014 21.6247 10.1533 21.1138 9.97955L19.3711 9.3951M7.80423 16.1958L16.1958 7.80423M7.80423 7.80423L16.1958 16.1958" stroke="currentColor" stroke-width="2" stroke-linecap="round" stroke-linejoin="round"/>
</svg> 